<mxfile host="app.diagrams.net" modified="2024-01-03T09:16:09.311Z" agent="Mozilla/5.0 (Windows NT 10.0; Win64; x64) AppleWebKit/537.36 (KHTML, like Gecko) Chrome/120.0.0.0 Safari/537.36" etag="lrR54e-RnXgjyjpvrgBF" version="22.1.16" type="github">
  <diagram name="페이지-1" id="nq74OwpZg5SvRDUDiQA5">
    <mxGraphModel dx="2076" dy="2311" grid="1" gridSize="10" guides="1" tooltips="1" connect="1" arrows="1" fold="1" page="0" pageScale="1" pageWidth="827" pageHeight="1169" background="none" math="0" shadow="0">
      <root>
        <mxCell id="0" />
        <mxCell id="1" parent="0" />
        <mxCell id="DXblO_jNl26xeSwkopg4-2" value="" style="rounded=0;whiteSpace=wrap;html=1;fontSize=16;" parent="1" vertex="1">
          <mxGeometry x="-225" y="-719" width="120" height="60" as="geometry" />
        </mxCell>
        <mxCell id="DXblO_jNl26xeSwkopg4-3" value="" style="rounded=0;whiteSpace=wrap;html=1;fontSize=16;" parent="1" vertex="1">
          <mxGeometry x="145" y="-719" width="120" height="60" as="geometry" />
        </mxCell>
        <mxCell id="DXblO_jNl26xeSwkopg4-4" value="" style="endArrow=none;html=1;rounded=0;fontSize=12;startSize=8;endSize=8;curved=1;exitX=1;exitY=0.5;exitDx=0;exitDy=0;" parent="1" source="DXblO_jNl26xeSwkopg4-2" target="DXblO_jNl26xeSwkopg4-6" edge="1">
          <mxGeometry width="50" height="50" relative="1" as="geometry">
            <mxPoint x="-5" y="-664" as="sourcePoint" />
            <mxPoint x="-35" y="-689" as="targetPoint" />
          </mxGeometry>
        </mxCell>
        <mxCell id="DXblO_jNl26xeSwkopg4-5" value="" style="endArrow=none;html=1;rounded=0;fontSize=12;startSize=8;endSize=8;curved=1;exitX=1;exitY=0.5;exitDx=0;exitDy=0;" parent="1" source="DXblO_jNl26xeSwkopg4-6" edge="1">
          <mxGeometry width="50" height="50" relative="1" as="geometry">
            <mxPoint x="75" y="-689" as="sourcePoint" />
            <mxPoint x="145" y="-689.5" as="targetPoint" />
          </mxGeometry>
        </mxCell>
        <mxCell id="DXblO_jNl26xeSwkopg4-6" value="" style="rhombus;whiteSpace=wrap;html=1;fontSize=16;" parent="1" vertex="1">
          <mxGeometry x="-55" y="-729" width="120" height="70" as="geometry" />
        </mxCell>
        <mxCell id="DXblO_jNl26xeSwkopg4-7" value="고객" style="text;strokeColor=none;fillColor=none;html=1;align=center;verticalAlign=middle;whiteSpace=wrap;rounded=0;fontSize=16;" parent="1" vertex="1">
          <mxGeometry x="-195" y="-704" width="60" height="30" as="geometry" />
        </mxCell>
        <mxCell id="DXblO_jNl26xeSwkopg4-8" value="" style="endArrow=none;html=1;rounded=0;fontSize=12;startSize=8;endSize=8;curved=1;exitX=0.667;exitY=0.101;exitDx=0;exitDy=0;exitPerimeter=0;" parent="1" source="DXblO_jNl26xeSwkopg4-49" target="DXblO_jNl26xeSwkopg4-46" edge="1">
          <mxGeometry width="50" height="50" relative="1" as="geometry">
            <mxPoint x="-227.9799999999998" y="-847" as="sourcePoint" />
            <mxPoint x="-205" y="-879" as="targetPoint" />
          </mxGeometry>
        </mxCell>
        <mxCell id="DXblO_jNl26xeSwkopg4-9" value="" style="endArrow=none;html=1;rounded=0;fontSize=12;startSize=8;endSize=8;curved=1;entryX=0.5;entryY=1;entryDx=0;entryDy=0;" parent="1" source="DXblO_jNl26xeSwkopg4-49" target="DXblO_jNl26xeSwkopg4-47" edge="1">
          <mxGeometry width="50" height="50" relative="1" as="geometry">
            <mxPoint x="-258" y="-840" as="sourcePoint" />
            <mxPoint x="-280" y="-879" as="targetPoint" />
          </mxGeometry>
        </mxCell>
        <mxCell id="DXblO_jNl26xeSwkopg4-10" value="구매" style="text;strokeColor=none;fillColor=none;html=1;align=center;verticalAlign=middle;whiteSpace=wrap;rounded=0;fontSize=16;" parent="1" vertex="1">
          <mxGeometry x="-25" y="-704" width="60" height="30" as="geometry" />
        </mxCell>
        <mxCell id="DXblO_jNl26xeSwkopg4-11" value="제품" style="text;strokeColor=none;fillColor=none;html=1;align=center;verticalAlign=middle;whiteSpace=wrap;rounded=0;fontSize=16;" parent="1" vertex="1">
          <mxGeometry x="175" y="-704" width="60" height="30" as="geometry" />
        </mxCell>
        <mxCell id="DXblO_jNl26xeSwkopg4-12" value="" style="endArrow=none;html=1;rounded=0;fontSize=12;startSize=8;endSize=8;curved=1;" parent="1" edge="1">
          <mxGeometry width="50" height="50" relative="1" as="geometry">
            <mxPoint x="-275" y="-624" as="sourcePoint" />
            <mxPoint x="-225" y="-674" as="targetPoint" />
          </mxGeometry>
        </mxCell>
        <mxCell id="DXblO_jNl26xeSwkopg4-13" value="" style="endArrow=none;html=1;rounded=0;fontSize=12;startSize=8;endSize=8;curved=1;entryX=0;entryY=0.5;entryDx=0;entryDy=0;exitX=1;exitY=0.5;exitDx=0;exitDy=0;" parent="1" source="DXblO_jNl26xeSwkopg4-52" target="DXblO_jNl26xeSwkopg4-2" edge="1">
          <mxGeometry width="50" height="50" relative="1" as="geometry">
            <mxPoint x="-265" y="-678" as="sourcePoint" />
            <mxPoint x="-215" y="-664" as="targetPoint" />
          </mxGeometry>
        </mxCell>
        <mxCell id="DXblO_jNl26xeSwkopg4-14" value="" style="endArrow=none;html=1;rounded=0;fontSize=12;startSize=8;endSize=8;curved=1;entryX=1;entryY=0.5;entryDx=0;entryDy=0;exitX=0;exitY=0.25;exitDx=0;exitDy=0;" parent="1" source="DXblO_jNl26xeSwkopg4-2" target="DXblO_jNl26xeSwkopg4-51" edge="1">
          <mxGeometry width="50" height="50" relative="1" as="geometry">
            <mxPoint x="-255" y="-604" as="sourcePoint" />
            <mxPoint x="-265.4213510818265" y="-716.2016680247709" as="targetPoint" />
          </mxGeometry>
        </mxCell>
        <mxCell id="DXblO_jNl26xeSwkopg4-15" value="" style="endArrow=none;html=1;rounded=0;fontSize=12;startSize=8;endSize=8;curved=1;entryX=1;entryY=1;entryDx=0;entryDy=0;exitX=0;exitY=0;exitDx=0;exitDy=0;" parent="1" source="DXblO_jNl26xeSwkopg4-2" target="DXblO_jNl26xeSwkopg4-50" edge="1">
          <mxGeometry width="50" height="50" relative="1" as="geometry">
            <mxPoint x="-245" y="-594" as="sourcePoint" />
            <mxPoint x="-306.0300000000002" y="-922" as="targetPoint" />
          </mxGeometry>
        </mxCell>
        <mxCell id="DXblO_jNl26xeSwkopg4-16" value="" style="endArrow=none;html=1;rounded=0;fontSize=12;startSize=8;endSize=8;curved=1;entryX=0.5;entryY=1;entryDx=0;entryDy=0;exitX=0.25;exitY=0;exitDx=0;exitDy=0;" parent="1" source="DXblO_jNl26xeSwkopg4-2" target="DXblO_jNl26xeSwkopg4-49" edge="1">
          <mxGeometry width="50" height="50" relative="1" as="geometry">
            <mxPoint x="-235" y="-584" as="sourcePoint" />
            <mxPoint x="-241" y="-799" as="targetPoint" />
          </mxGeometry>
        </mxCell>
        <mxCell id="DXblO_jNl26xeSwkopg4-17" value="" style="endArrow=none;html=1;rounded=0;fontSize=12;startSize=8;endSize=8;curved=1;entryX=0.5;entryY=1;entryDx=0;entryDy=0;exitX=0.5;exitY=0;exitDx=0;exitDy=0;" parent="1" source="DXblO_jNl26xeSwkopg4-2" target="DXblO_jNl26xeSwkopg4-48" edge="1">
          <mxGeometry width="50" height="50" relative="1" as="geometry">
            <mxPoint x="-225" y="-574" as="sourcePoint" />
            <mxPoint x="-167" y="-800.0000000000002" as="targetPoint" />
          </mxGeometry>
        </mxCell>
        <mxCell id="DXblO_jNl26xeSwkopg4-18" value="" style="endArrow=none;html=1;rounded=0;fontSize=12;startSize=8;endSize=8;curved=1;entryX=0.5;entryY=1;entryDx=0;entryDy=0;exitX=1;exitY=0;exitDx=0;exitDy=0;" parent="1" source="DXblO_jNl26xeSwkopg4-2" target="DXblO_jNl26xeSwkopg4-45" edge="1">
          <mxGeometry width="50" height="50" relative="1" as="geometry">
            <mxPoint x="-215" y="-564" as="sourcePoint" />
            <mxPoint x="-97.01999999999975" y="-796" as="targetPoint" />
          </mxGeometry>
        </mxCell>
        <mxCell id="DXblO_jNl26xeSwkopg4-19" value="" style="endArrow=none;html=1;rounded=0;fontSize=12;startSize=8;endSize=8;curved=1;entryX=0.5;entryY=1;entryDx=0;entryDy=0;exitX=0;exitY=0;exitDx=0;exitDy=0;" parent="1" source="DXblO_jNl26xeSwkopg4-3" edge="1">
          <mxGeometry width="50" height="50" relative="1" as="geometry">
            <mxPoint x="15" y="-559" as="sourcePoint" />
            <mxPoint x="115" y="-743" as="targetPoint" />
          </mxGeometry>
        </mxCell>
        <mxCell id="DXblO_jNl26xeSwkopg4-20" value="" style="endArrow=none;html=1;rounded=0;fontSize=12;startSize=8;endSize=8;curved=1;exitX=0.5;exitY=0;exitDx=0;exitDy=0;" parent="1" source="DXblO_jNl26xeSwkopg4-3" edge="1">
          <mxGeometry width="50" height="50" relative="1" as="geometry">
            <mxPoint x="155" y="-709" as="sourcePoint" />
            <mxPoint x="209.51387766099174" y="-741.2835039970391" as="targetPoint" />
          </mxGeometry>
        </mxCell>
        <mxCell id="DXblO_jNl26xeSwkopg4-21" value="" style="endArrow=none;html=1;rounded=0;fontSize=12;startSize=8;endSize=8;curved=1;entryX=1;entryY=0.25;entryDx=0;entryDy=0;exitX=0.292;exitY=0.96;exitDx=0;exitDy=0;exitPerimeter=0;" parent="1" target="DXblO_jNl26xeSwkopg4-3" edge="1">
          <mxGeometry width="50" height="50" relative="1" as="geometry">
            <mxPoint x="294.20000000000005" y="-720.5999999999999" as="sourcePoint" />
            <mxPoint x="135" y="-723" as="targetPoint" />
          </mxGeometry>
        </mxCell>
        <mxCell id="DXblO_jNl26xeSwkopg4-22" value="" style="endArrow=none;html=1;rounded=0;fontSize=12;startSize=8;endSize=8;curved=1;exitX=0;exitY=0.5;exitDx=0;exitDy=0;entryX=1;entryY=0.75;entryDx=0;entryDy=0;" parent="1" target="DXblO_jNl26xeSwkopg4-3" edge="1">
          <mxGeometry width="50" height="50" relative="1" as="geometry">
            <mxPoint x="295" y="-669" as="sourcePoint" />
            <mxPoint x="280" y="-680" as="targetPoint" />
          </mxGeometry>
        </mxCell>
        <mxCell id="DXblO_jNl26xeSwkopg4-23" value="" style="rounded=0;whiteSpace=wrap;html=1;fontSize=16;" parent="1" vertex="1">
          <mxGeometry x="-227" y="-439" width="120" height="60" as="geometry" />
        </mxCell>
        <mxCell id="DXblO_jNl26xeSwkopg4-24" value="지역" style="text;strokeColor=none;fillColor=none;html=1;align=center;verticalAlign=middle;whiteSpace=wrap;rounded=0;fontSize=16;" parent="1" vertex="1">
          <mxGeometry x="-195" y="-424" width="60" height="30" as="geometry" />
        </mxCell>
        <mxCell id="DXblO_jNl26xeSwkopg4-25" style="edgeStyle=none;curved=1;rounded=0;orthogonalLoop=1;jettySize=auto;html=1;exitX=1;exitY=0.5;exitDx=0;exitDy=0;fontSize=12;startSize=8;endSize=8;" parent="1" source="DXblO_jNl26xeSwkopg4-6" target="DXblO_jNl26xeSwkopg4-6" edge="1">
          <mxGeometry relative="1" as="geometry" />
        </mxCell>
        <mxCell id="DXblO_jNl26xeSwkopg4-26" value="" style="rhombus;whiteSpace=wrap;html=1;fontSize=16;" parent="1" vertex="1">
          <mxGeometry x="-225" y="-589" width="120" height="70" as="geometry" />
        </mxCell>
        <mxCell id="DXblO_jNl26xeSwkopg4-27" value="관리" style="text;strokeColor=none;fillColor=none;html=1;align=center;verticalAlign=middle;whiteSpace=wrap;rounded=0;fontSize=16;" parent="1" vertex="1">
          <mxGeometry x="-195" y="-564" width="60" height="30" as="geometry" />
        </mxCell>
        <mxCell id="DXblO_jNl26xeSwkopg4-28" style="edgeStyle=none;curved=1;rounded=0;orthogonalLoop=1;jettySize=auto;html=1;exitX=1;exitY=0.5;exitDx=0;exitDy=0;fontSize=12;startSize=8;endSize=8;" parent="1" source="DXblO_jNl26xeSwkopg4-26" target="DXblO_jNl26xeSwkopg4-26" edge="1">
          <mxGeometry relative="1" as="geometry" />
        </mxCell>
        <mxCell id="DXblO_jNl26xeSwkopg4-29" value="" style="endArrow=none;html=1;rounded=0;fontSize=12;startSize=8;endSize=8;curved=1;entryX=0.5;entryY=1;entryDx=0;entryDy=0;" parent="1" target="DXblO_jNl26xeSwkopg4-2" edge="1">
          <mxGeometry width="50" height="50" relative="1" as="geometry">
            <mxPoint x="-165" y="-589" as="sourcePoint" />
            <mxPoint x="-115" y="-639" as="targetPoint" />
          </mxGeometry>
        </mxCell>
        <mxCell id="DXblO_jNl26xeSwkopg4-30" value="" style="endArrow=none;html=1;rounded=0;fontSize=12;startSize=8;endSize=8;curved=1;entryX=0.5;entryY=1;entryDx=0;entryDy=0;" parent="1" target="DXblO_jNl26xeSwkopg4-26" edge="1">
          <mxGeometry width="50" height="50" relative="1" as="geometry">
            <mxPoint x="-165.5" y="-439" as="sourcePoint" />
            <mxPoint x="-165.5" y="-509" as="targetPoint" />
          </mxGeometry>
        </mxCell>
        <mxCell id="DXblO_jNl26xeSwkopg4-31" value="" style="endArrow=none;html=1;rounded=0;fontSize=12;startSize=8;endSize=8;curved=1;entryX=0;entryY=1;entryDx=0;entryDy=0;" parent="1" target="DXblO_jNl26xeSwkopg4-6" edge="1">
          <mxGeometry width="50" height="50" relative="1" as="geometry">
            <mxPoint x="-45" y="-639" as="sourcePoint" />
            <mxPoint x="-17" y="-673" as="targetPoint" />
          </mxGeometry>
        </mxCell>
        <mxCell id="DXblO_jNl26xeSwkopg4-32" value="" style="endArrow=none;html=1;rounded=0;fontSize=12;startSize=8;endSize=8;curved=1;entryX=1;entryY=1;entryDx=0;entryDy=0;" parent="1" target="DXblO_jNl26xeSwkopg4-6" edge="1">
          <mxGeometry width="50" height="50" relative="1" as="geometry">
            <mxPoint x="55" y="-639" as="sourcePoint" />
            <mxPoint x="37" y="-674" as="targetPoint" />
          </mxGeometry>
        </mxCell>
        <mxCell id="DXblO_jNl26xeSwkopg4-33" value="" style="endArrow=none;html=1;rounded=0;fontSize=12;startSize=8;endSize=8;curved=1;exitX=0.5;exitY=0;exitDx=0;exitDy=0;" parent="1" source="DXblO_jNl26xeSwkopg4-38" edge="1">
          <mxGeometry width="50" height="50" relative="1" as="geometry">
            <mxPoint x="-235" y="-329" as="sourcePoint" />
            <mxPoint x="-185" y="-379" as="targetPoint" />
          </mxGeometry>
        </mxCell>
        <mxCell id="DXblO_jNl26xeSwkopg4-34" value="" style="endArrow=none;html=1;rounded=0;fontSize=12;startSize=8;endSize=8;curved=1;exitX=0.432;exitY=0.007;exitDx=0;exitDy=0;exitPerimeter=0;" parent="1" source="DXblO_jNl26xeSwkopg4-53" edge="1">
          <mxGeometry width="50" height="50" relative="1" as="geometry">
            <mxPoint x="-125" y="-329" as="sourcePoint" />
            <mxPoint x="-141" y="-379" as="targetPoint" />
          </mxGeometry>
        </mxCell>
        <mxCell id="DXblO_jNl26xeSwkopg4-35" value="" style="endArrow=none;html=1;rounded=0;fontSize=12;startSize=8;endSize=8;curved=1;exitX=0.275;exitY=0.1;exitDx=0;exitDy=0;exitPerimeter=0;" parent="1" edge="1">
          <mxGeometry width="50" height="50" relative="1" as="geometry">
            <mxPoint x="267" y="-614" as="sourcePoint" />
            <mxPoint x="225" y="-659" as="targetPoint" />
          </mxGeometry>
        </mxCell>
        <mxCell id="DXblO_jNl26xeSwkopg4-36" value="&lt;font color=&quot;#ff0000&quot;&gt;제품코드&lt;/font&gt;" style="ellipse;whiteSpace=wrap;html=1;align=center;fontStyle=4;" parent="1" vertex="1">
          <mxGeometry x="55" y="-779" width="100" height="40" as="geometry" />
        </mxCell>
        <mxCell id="DXblO_jNl26xeSwkopg4-37" value="&lt;font color=&quot;#ff0000&quot;&gt;고객코드&lt;/font&gt;" style="ellipse;whiteSpace=wrap;html=1;align=center;fontStyle=4;" parent="1" vertex="1">
          <mxGeometry x="-360" y="-629" width="100" height="40" as="geometry" />
        </mxCell>
        <mxCell id="DXblO_jNl26xeSwkopg4-38" value="&lt;font color=&quot;#ff0000&quot;&gt;지역코드&lt;/font&gt;" style="ellipse;whiteSpace=wrap;html=1;align=center;fontStyle=4;" parent="1" vertex="1">
          <mxGeometry x="-280" y="-329" width="100" height="40" as="geometry" />
        </mxCell>
        <mxCell id="DXblO_jNl26xeSwkopg4-39" value="제품명" style="ellipse;whiteSpace=wrap;html=1;align=center;" parent="1" vertex="1">
          <mxGeometry x="165" y="-781" width="100" height="40" as="geometry" />
        </mxCell>
        <mxCell id="DXblO_jNl26xeSwkopg4-40" value="제품구분" style="ellipse;whiteSpace=wrap;html=1;align=center;" parent="1" vertex="1">
          <mxGeometry x="245" y="-619" width="100" height="40" as="geometry" />
        </mxCell>
        <mxCell id="DXblO_jNl26xeSwkopg4-41" value="가격" style="ellipse;whiteSpace=wrap;html=1;align=center;" parent="1" vertex="1">
          <mxGeometry x="285" y="-679" width="100" height="40" as="geometry" />
        </mxCell>
        <mxCell id="DXblO_jNl26xeSwkopg4-42" value="&lt;font color=&quot;#ff0000&quot;&gt;제품색상&lt;/font&gt;" style="ellipse;shape=doubleEllipse;margin=3;whiteSpace=wrap;html=1;align=center;" parent="1" vertex="1">
          <mxGeometry x="265" y="-759" width="100" height="40" as="geometry" />
        </mxCell>
        <mxCell id="DXblO_jNl26xeSwkopg4-43" value="구매일자" style="ellipse;whiteSpace=wrap;html=1;align=center;" parent="1" vertex="1">
          <mxGeometry x="15" y="-639" width="100" height="40" as="geometry" />
        </mxCell>
        <mxCell id="DXblO_jNl26xeSwkopg4-44" value="구매수량" style="ellipse;whiteSpace=wrap;html=1;align=center;" parent="1" vertex="1">
          <mxGeometry x="-100" y="-640" width="100" height="40" as="geometry" />
        </mxCell>
        <mxCell id="DXblO_jNl26xeSwkopg4-45" value="가입일" style="ellipse;whiteSpace=wrap;html=1;align=center;" parent="1" vertex="1">
          <mxGeometry x="-85" y="-799" width="100" height="40" as="geometry" />
        </mxCell>
        <mxCell id="DXblO_jNl26xeSwkopg4-46" value="상세주소" style="ellipse;whiteSpace=wrap;html=1;align=center;" parent="1" vertex="1">
          <mxGeometry x="-241" y="-879" width="100" height="40" as="geometry" />
        </mxCell>
        <mxCell id="DXblO_jNl26xeSwkopg4-47" value="기본주소" style="ellipse;whiteSpace=wrap;html=1;align=center;" parent="1" vertex="1">
          <mxGeometry x="-360" y="-879" width="100" height="40" as="geometry" />
        </mxCell>
        <mxCell id="DXblO_jNl26xeSwkopg4-48" value="지역" style="ellipse;whiteSpace=wrap;html=1;align=center;" parent="1" vertex="1">
          <mxGeometry x="-195" y="-819" width="100" height="40" as="geometry" />
        </mxCell>
        <mxCell id="DXblO_jNl26xeSwkopg4-49" value="&lt;font color=&quot;#ff0000&quot;&gt;주소&lt;/font&gt;" style="ellipse;whiteSpace=wrap;html=1;align=center;" parent="1" vertex="1">
          <mxGeometry x="-300" y="-821" width="100" height="40" as="geometry" />
        </mxCell>
        <mxCell id="DXblO_jNl26xeSwkopg4-50" value="이메일" style="ellipse;whiteSpace=wrap;html=1;align=center;" parent="1" vertex="1">
          <mxGeometry x="-360" y="-779" width="100" height="40" as="geometry" />
        </mxCell>
        <mxCell id="DXblO_jNl26xeSwkopg4-51" value="전화번호" style="ellipse;whiteSpace=wrap;html=1;align=center;" parent="1" vertex="1">
          <mxGeometry x="-370" y="-729" width="100" height="40" as="geometry" />
        </mxCell>
        <mxCell id="DXblO_jNl26xeSwkopg4-52" value="고객명" style="ellipse;whiteSpace=wrap;html=1;align=center;" parent="1" vertex="1">
          <mxGeometry x="-370" y="-679" width="100" height="40" as="geometry" />
        </mxCell>
        <mxCell id="DXblO_jNl26xeSwkopg4-53" value="지역명" style="ellipse;whiteSpace=wrap;html=1;align=center;" parent="1" vertex="1">
          <mxGeometry x="-160" y="-329" width="100" height="40" as="geometry" />
        </mxCell>
        <mxCell id="DXblO_jNl26xeSwkopg4-65" value="N" style="text;strokeColor=none;align=center;fillColor=none;html=1;verticalAlign=middle;whiteSpace=wrap;rounded=0;" parent="1" vertex="1">
          <mxGeometry x="50" y="-724" width="50" height="24" as="geometry" />
        </mxCell>
        <mxCell id="DXblO_jNl26xeSwkopg4-67" value="N" style="text;strokeColor=none;align=center;fillColor=none;html=1;verticalAlign=middle;whiteSpace=wrap;rounded=0;" parent="1" vertex="1">
          <mxGeometry x="-170" y="-613" width="50" height="24" as="geometry" />
        </mxCell>
        <mxCell id="DXblO_jNl26xeSwkopg4-68" value="M" style="text;strokeColor=none;align=center;fillColor=none;html=1;verticalAlign=middle;whiteSpace=wrap;rounded=0;" parent="1" vertex="1">
          <mxGeometry x="-85" y="-729" width="50" height="24" as="geometry" />
        </mxCell>
        <mxCell id="DXblO_jNl26xeSwkopg4-69" value="&lt;span style=&quot;color: rgb(0, 0, 0); font-family: Helvetica; font-size: 12px; font-style: normal; font-variant-ligatures: normal; font-variant-caps: normal; font-weight: 400; letter-spacing: normal; orphans: 2; text-align: center; text-indent: 0px; text-transform: none; widows: 2; word-spacing: 0px; -webkit-text-stroke-width: 0px; background-color: rgb(255, 255, 255); text-decoration-thickness: initial; text-decoration-style: initial; text-decoration-color: initial; float: none; display: inline !important;&quot;&gt;1&lt;/span&gt;" style="text;whiteSpace=wrap;html=1;" parent="1" vertex="1">
          <mxGeometry x="-147" y="-530" width="40" height="30" as="geometry" />
        </mxCell>
        <mxCell id="DXblO_jNl26xeSwkopg4-70" value="Text" style="text;strokeColor=none;align=center;fillColor=none;html=1;verticalAlign=middle;whiteSpace=wrap;rounded=0;" parent="1" vertex="1">
          <mxGeometry x="-110" y="-580" width="60" height="30" as="geometry" />
        </mxCell>
        <mxCell id="HmVvPEnZhzMZrV7oaeaQ-5" value="고객" style="shape=table;startSize=30;container=1;collapsible=1;childLayout=tableLayout;fixedRows=1;rowLines=0;fontStyle=1;align=center;resizeLast=1;html=1;" vertex="1" parent="1">
          <mxGeometry x="-255" y="30" width="180" height="300" as="geometry" />
        </mxCell>
        <mxCell id="HmVvPEnZhzMZrV7oaeaQ-6" value="" style="shape=tableRow;horizontal=0;startSize=0;swimlaneHead=0;swimlaneBody=0;fillColor=none;collapsible=0;dropTarget=0;points=[[0,0.5],[1,0.5]];portConstraint=eastwest;top=0;left=0;right=0;bottom=1;" vertex="1" parent="HmVvPEnZhzMZrV7oaeaQ-5">
          <mxGeometry y="30" width="180" height="30" as="geometry" />
        </mxCell>
        <mxCell id="HmVvPEnZhzMZrV7oaeaQ-7" value="PK" style="shape=partialRectangle;connectable=0;fillColor=none;top=0;left=0;bottom=0;right=0;fontStyle=1;overflow=hidden;whiteSpace=wrap;html=1;" vertex="1" parent="HmVvPEnZhzMZrV7oaeaQ-6">
          <mxGeometry width="30" height="30" as="geometry">
            <mxRectangle width="30" height="30" as="alternateBounds" />
          </mxGeometry>
        </mxCell>
        <mxCell id="HmVvPEnZhzMZrV7oaeaQ-8" value="고객코드" style="shape=partialRectangle;connectable=0;fillColor=none;top=0;left=0;bottom=0;right=0;align=left;spacingLeft=6;fontStyle=5;overflow=hidden;whiteSpace=wrap;html=1;" vertex="1" parent="HmVvPEnZhzMZrV7oaeaQ-6">
          <mxGeometry x="30" width="150" height="30" as="geometry">
            <mxRectangle width="150" height="30" as="alternateBounds" />
          </mxGeometry>
        </mxCell>
        <mxCell id="HmVvPEnZhzMZrV7oaeaQ-9" value="" style="shape=tableRow;horizontal=0;startSize=0;swimlaneHead=0;swimlaneBody=0;fillColor=none;collapsible=0;dropTarget=0;points=[[0,0.5],[1,0.5]];portConstraint=eastwest;top=0;left=0;right=0;bottom=0;" vertex="1" parent="HmVvPEnZhzMZrV7oaeaQ-5">
          <mxGeometry y="60" width="180" height="30" as="geometry" />
        </mxCell>
        <mxCell id="HmVvPEnZhzMZrV7oaeaQ-10" value="" style="shape=partialRectangle;connectable=0;fillColor=none;top=0;left=0;bottom=0;right=0;editable=1;overflow=hidden;whiteSpace=wrap;html=1;" vertex="1" parent="HmVvPEnZhzMZrV7oaeaQ-9">
          <mxGeometry width="30" height="30" as="geometry">
            <mxRectangle width="30" height="30" as="alternateBounds" />
          </mxGeometry>
        </mxCell>
        <mxCell id="HmVvPEnZhzMZrV7oaeaQ-11" value="고객명" style="shape=partialRectangle;connectable=0;fillColor=none;top=0;left=0;bottom=0;right=0;align=left;spacingLeft=6;overflow=hidden;whiteSpace=wrap;html=1;" vertex="1" parent="HmVvPEnZhzMZrV7oaeaQ-9">
          <mxGeometry x="30" width="150" height="30" as="geometry">
            <mxRectangle width="150" height="30" as="alternateBounds" />
          </mxGeometry>
        </mxCell>
        <mxCell id="HmVvPEnZhzMZrV7oaeaQ-12" value="" style="shape=tableRow;horizontal=0;startSize=0;swimlaneHead=0;swimlaneBody=0;fillColor=none;collapsible=0;dropTarget=0;points=[[0,0.5],[1,0.5]];portConstraint=eastwest;top=0;left=0;right=0;bottom=0;" vertex="1" parent="HmVvPEnZhzMZrV7oaeaQ-5">
          <mxGeometry y="90" width="180" height="30" as="geometry" />
        </mxCell>
        <mxCell id="HmVvPEnZhzMZrV7oaeaQ-13" value="" style="shape=partialRectangle;connectable=0;fillColor=none;top=0;left=0;bottom=0;right=0;editable=1;overflow=hidden;whiteSpace=wrap;html=1;" vertex="1" parent="HmVvPEnZhzMZrV7oaeaQ-12">
          <mxGeometry width="30" height="30" as="geometry">
            <mxRectangle width="30" height="30" as="alternateBounds" />
          </mxGeometry>
        </mxCell>
        <mxCell id="HmVvPEnZhzMZrV7oaeaQ-14" value="전화번호" style="shape=partialRectangle;connectable=0;fillColor=none;top=0;left=0;bottom=0;right=0;align=left;spacingLeft=6;overflow=hidden;whiteSpace=wrap;html=1;" vertex="1" parent="HmVvPEnZhzMZrV7oaeaQ-12">
          <mxGeometry x="30" width="150" height="30" as="geometry">
            <mxRectangle width="150" height="30" as="alternateBounds" />
          </mxGeometry>
        </mxCell>
        <mxCell id="HmVvPEnZhzMZrV7oaeaQ-15" value="" style="shape=tableRow;horizontal=0;startSize=0;swimlaneHead=0;swimlaneBody=0;fillColor=none;collapsible=0;dropTarget=0;points=[[0,0.5],[1,0.5]];portConstraint=eastwest;top=0;left=0;right=0;bottom=0;" vertex="1" parent="HmVvPEnZhzMZrV7oaeaQ-5">
          <mxGeometry y="120" width="180" height="30" as="geometry" />
        </mxCell>
        <mxCell id="HmVvPEnZhzMZrV7oaeaQ-16" value="" style="shape=partialRectangle;connectable=0;fillColor=none;top=0;left=0;bottom=0;right=0;editable=1;overflow=hidden;whiteSpace=wrap;html=1;" vertex="1" parent="HmVvPEnZhzMZrV7oaeaQ-15">
          <mxGeometry width="30" height="30" as="geometry">
            <mxRectangle width="30" height="30" as="alternateBounds" />
          </mxGeometry>
        </mxCell>
        <mxCell id="HmVvPEnZhzMZrV7oaeaQ-17" value="이메일" style="shape=partialRectangle;connectable=0;fillColor=none;top=0;left=0;bottom=0;right=0;align=left;spacingLeft=6;overflow=hidden;whiteSpace=wrap;html=1;" vertex="1" parent="HmVvPEnZhzMZrV7oaeaQ-15">
          <mxGeometry x="30" width="150" height="30" as="geometry">
            <mxRectangle width="150" height="30" as="alternateBounds" />
          </mxGeometry>
        </mxCell>
        <mxCell id="HmVvPEnZhzMZrV7oaeaQ-44" value="" style="shape=tableRow;horizontal=0;startSize=0;swimlaneHead=0;swimlaneBody=0;fillColor=none;collapsible=0;dropTarget=0;points=[[0,0.5],[1,0.5]];portConstraint=eastwest;top=0;left=0;right=0;bottom=0;" vertex="1" parent="HmVvPEnZhzMZrV7oaeaQ-5">
          <mxGeometry y="150" width="180" height="30" as="geometry" />
        </mxCell>
        <mxCell id="HmVvPEnZhzMZrV7oaeaQ-45" value="" style="shape=partialRectangle;connectable=0;fillColor=none;top=0;left=0;bottom=0;right=0;editable=1;overflow=hidden;whiteSpace=wrap;html=1;" vertex="1" parent="HmVvPEnZhzMZrV7oaeaQ-44">
          <mxGeometry width="30" height="30" as="geometry">
            <mxRectangle width="30" height="30" as="alternateBounds" />
          </mxGeometry>
        </mxCell>
        <mxCell id="HmVvPEnZhzMZrV7oaeaQ-46" value="기본주소" style="shape=partialRectangle;connectable=0;fillColor=none;top=0;left=0;bottom=0;right=0;align=left;spacingLeft=6;overflow=hidden;whiteSpace=wrap;html=1;" vertex="1" parent="HmVvPEnZhzMZrV7oaeaQ-44">
          <mxGeometry x="30" width="150" height="30" as="geometry">
            <mxRectangle width="150" height="30" as="alternateBounds" />
          </mxGeometry>
        </mxCell>
        <mxCell id="HmVvPEnZhzMZrV7oaeaQ-47" value="" style="shape=tableRow;horizontal=0;startSize=0;swimlaneHead=0;swimlaneBody=0;fillColor=none;collapsible=0;dropTarget=0;points=[[0,0.5],[1,0.5]];portConstraint=eastwest;top=0;left=0;right=0;bottom=0;" vertex="1" parent="HmVvPEnZhzMZrV7oaeaQ-5">
          <mxGeometry y="180" width="180" height="30" as="geometry" />
        </mxCell>
        <mxCell id="HmVvPEnZhzMZrV7oaeaQ-48" value="" style="shape=partialRectangle;connectable=0;fillColor=none;top=0;left=0;bottom=0;right=0;editable=1;overflow=hidden;whiteSpace=wrap;html=1;" vertex="1" parent="HmVvPEnZhzMZrV7oaeaQ-47">
          <mxGeometry width="30" height="30" as="geometry">
            <mxRectangle width="30" height="30" as="alternateBounds" />
          </mxGeometry>
        </mxCell>
        <mxCell id="HmVvPEnZhzMZrV7oaeaQ-49" value="상세주소" style="shape=partialRectangle;connectable=0;fillColor=none;top=0;left=0;bottom=0;right=0;align=left;spacingLeft=6;overflow=hidden;whiteSpace=wrap;html=1;" vertex="1" parent="HmVvPEnZhzMZrV7oaeaQ-47">
          <mxGeometry x="30" width="150" height="30" as="geometry">
            <mxRectangle width="150" height="30" as="alternateBounds" />
          </mxGeometry>
        </mxCell>
        <mxCell id="HmVvPEnZhzMZrV7oaeaQ-50" value="" style="shape=tableRow;horizontal=0;startSize=0;swimlaneHead=0;swimlaneBody=0;fillColor=none;collapsible=0;dropTarget=0;points=[[0,0.5],[1,0.5]];portConstraint=eastwest;top=0;left=0;right=0;bottom=0;" vertex="1" parent="HmVvPEnZhzMZrV7oaeaQ-5">
          <mxGeometry y="210" width="180" height="30" as="geometry" />
        </mxCell>
        <mxCell id="HmVvPEnZhzMZrV7oaeaQ-51" value="" style="shape=partialRectangle;connectable=0;fillColor=none;top=0;left=0;bottom=0;right=0;editable=1;overflow=hidden;whiteSpace=wrap;html=1;" vertex="1" parent="HmVvPEnZhzMZrV7oaeaQ-50">
          <mxGeometry width="30" height="30" as="geometry">
            <mxRectangle width="30" height="30" as="alternateBounds" />
          </mxGeometry>
        </mxCell>
        <mxCell id="HmVvPEnZhzMZrV7oaeaQ-52" value="지역" style="shape=partialRectangle;connectable=0;fillColor=none;top=0;left=0;bottom=0;right=0;align=left;spacingLeft=6;overflow=hidden;whiteSpace=wrap;html=1;" vertex="1" parent="HmVvPEnZhzMZrV7oaeaQ-50">
          <mxGeometry x="30" width="150" height="30" as="geometry">
            <mxRectangle width="150" height="30" as="alternateBounds" />
          </mxGeometry>
        </mxCell>
        <mxCell id="HmVvPEnZhzMZrV7oaeaQ-53" value="" style="shape=tableRow;horizontal=0;startSize=0;swimlaneHead=0;swimlaneBody=0;fillColor=none;collapsible=0;dropTarget=0;points=[[0,0.5],[1,0.5]];portConstraint=eastwest;top=0;left=0;right=0;bottom=0;" vertex="1" parent="HmVvPEnZhzMZrV7oaeaQ-5">
          <mxGeometry y="240" width="180" height="30" as="geometry" />
        </mxCell>
        <mxCell id="HmVvPEnZhzMZrV7oaeaQ-54" value="" style="shape=partialRectangle;connectable=0;fillColor=none;top=0;left=0;bottom=0;right=0;editable=1;overflow=hidden;whiteSpace=wrap;html=1;" vertex="1" parent="HmVvPEnZhzMZrV7oaeaQ-53">
          <mxGeometry width="30" height="30" as="geometry">
            <mxRectangle width="30" height="30" as="alternateBounds" />
          </mxGeometry>
        </mxCell>
        <mxCell id="HmVvPEnZhzMZrV7oaeaQ-55" value="가입일" style="shape=partialRectangle;connectable=0;fillColor=none;top=0;left=0;bottom=0;right=0;align=left;spacingLeft=6;overflow=hidden;whiteSpace=wrap;html=1;" vertex="1" parent="HmVvPEnZhzMZrV7oaeaQ-53">
          <mxGeometry x="30" width="150" height="30" as="geometry">
            <mxRectangle width="150" height="30" as="alternateBounds" />
          </mxGeometry>
        </mxCell>
        <mxCell id="HmVvPEnZhzMZrV7oaeaQ-101" value="" style="shape=tableRow;horizontal=0;startSize=0;swimlaneHead=0;swimlaneBody=0;fillColor=none;collapsible=0;dropTarget=0;points=[[0,0.5],[1,0.5]];portConstraint=eastwest;top=0;left=0;right=0;bottom=0;" vertex="1" parent="HmVvPEnZhzMZrV7oaeaQ-5">
          <mxGeometry y="270" width="180" height="30" as="geometry" />
        </mxCell>
        <mxCell id="HmVvPEnZhzMZrV7oaeaQ-102" value="" style="shape=partialRectangle;connectable=0;fillColor=none;top=0;left=0;bottom=0;right=0;editable=1;overflow=hidden;whiteSpace=wrap;html=1;" vertex="1" parent="HmVvPEnZhzMZrV7oaeaQ-101">
          <mxGeometry width="30" height="30" as="geometry">
            <mxRectangle width="30" height="30" as="alternateBounds" />
          </mxGeometry>
        </mxCell>
        <mxCell id="HmVvPEnZhzMZrV7oaeaQ-103" value="지역코드(FK)" style="shape=partialRectangle;connectable=0;fillColor=none;top=0;left=0;bottom=0;right=0;align=left;spacingLeft=6;overflow=hidden;whiteSpace=wrap;html=1;" vertex="1" parent="HmVvPEnZhzMZrV7oaeaQ-101">
          <mxGeometry x="30" width="150" height="30" as="geometry">
            <mxRectangle width="150" height="30" as="alternateBounds" />
          </mxGeometry>
        </mxCell>
        <mxCell id="HmVvPEnZhzMZrV7oaeaQ-56" value="제품" style="shape=table;startSize=30;container=1;collapsible=1;childLayout=tableLayout;fixedRows=1;rowLines=0;fontStyle=1;align=center;resizeLast=1;html=1;" vertex="1" parent="1">
          <mxGeometry x="-570" y="-15" width="180" height="150" as="geometry" />
        </mxCell>
        <mxCell id="HmVvPEnZhzMZrV7oaeaQ-57" value="" style="shape=tableRow;horizontal=0;startSize=0;swimlaneHead=0;swimlaneBody=0;fillColor=none;collapsible=0;dropTarget=0;points=[[0,0.5],[1,0.5]];portConstraint=eastwest;top=0;left=0;right=0;bottom=1;" vertex="1" parent="HmVvPEnZhzMZrV7oaeaQ-56">
          <mxGeometry y="30" width="180" height="30" as="geometry" />
        </mxCell>
        <mxCell id="HmVvPEnZhzMZrV7oaeaQ-58" value="PK" style="shape=partialRectangle;connectable=0;fillColor=none;top=0;left=0;bottom=0;right=0;fontStyle=1;overflow=hidden;whiteSpace=wrap;html=1;" vertex="1" parent="HmVvPEnZhzMZrV7oaeaQ-57">
          <mxGeometry width="30" height="30" as="geometry">
            <mxRectangle width="30" height="30" as="alternateBounds" />
          </mxGeometry>
        </mxCell>
        <mxCell id="HmVvPEnZhzMZrV7oaeaQ-59" value="제품코드" style="shape=partialRectangle;connectable=0;fillColor=none;top=0;left=0;bottom=0;right=0;align=left;spacingLeft=6;fontStyle=5;overflow=hidden;whiteSpace=wrap;html=1;" vertex="1" parent="HmVvPEnZhzMZrV7oaeaQ-57">
          <mxGeometry x="30" width="150" height="30" as="geometry">
            <mxRectangle width="150" height="30" as="alternateBounds" />
          </mxGeometry>
        </mxCell>
        <mxCell id="HmVvPEnZhzMZrV7oaeaQ-60" value="" style="shape=tableRow;horizontal=0;startSize=0;swimlaneHead=0;swimlaneBody=0;fillColor=none;collapsible=0;dropTarget=0;points=[[0,0.5],[1,0.5]];portConstraint=eastwest;top=0;left=0;right=0;bottom=0;" vertex="1" parent="HmVvPEnZhzMZrV7oaeaQ-56">
          <mxGeometry y="60" width="180" height="30" as="geometry" />
        </mxCell>
        <mxCell id="HmVvPEnZhzMZrV7oaeaQ-61" value="" style="shape=partialRectangle;connectable=0;fillColor=none;top=0;left=0;bottom=0;right=0;editable=1;overflow=hidden;whiteSpace=wrap;html=1;" vertex="1" parent="HmVvPEnZhzMZrV7oaeaQ-60">
          <mxGeometry width="30" height="30" as="geometry">
            <mxRectangle width="30" height="30" as="alternateBounds" />
          </mxGeometry>
        </mxCell>
        <mxCell id="HmVvPEnZhzMZrV7oaeaQ-62" value="제품명" style="shape=partialRectangle;connectable=0;fillColor=none;top=0;left=0;bottom=0;right=0;align=left;spacingLeft=6;overflow=hidden;whiteSpace=wrap;html=1;" vertex="1" parent="HmVvPEnZhzMZrV7oaeaQ-60">
          <mxGeometry x="30" width="150" height="30" as="geometry">
            <mxRectangle width="150" height="30" as="alternateBounds" />
          </mxGeometry>
        </mxCell>
        <mxCell id="HmVvPEnZhzMZrV7oaeaQ-66" value="" style="shape=tableRow;horizontal=0;startSize=0;swimlaneHead=0;swimlaneBody=0;fillColor=none;collapsible=0;dropTarget=0;points=[[0,0.5],[1,0.5]];portConstraint=eastwest;top=0;left=0;right=0;bottom=0;" vertex="1" parent="HmVvPEnZhzMZrV7oaeaQ-56">
          <mxGeometry y="90" width="180" height="30" as="geometry" />
        </mxCell>
        <mxCell id="HmVvPEnZhzMZrV7oaeaQ-67" value="" style="shape=partialRectangle;connectable=0;fillColor=none;top=0;left=0;bottom=0;right=0;editable=1;overflow=hidden;whiteSpace=wrap;html=1;" vertex="1" parent="HmVvPEnZhzMZrV7oaeaQ-66">
          <mxGeometry width="30" height="30" as="geometry">
            <mxRectangle width="30" height="30" as="alternateBounds" />
          </mxGeometry>
        </mxCell>
        <mxCell id="HmVvPEnZhzMZrV7oaeaQ-68" value="가격" style="shape=partialRectangle;connectable=0;fillColor=none;top=0;left=0;bottom=0;right=0;align=left;spacingLeft=6;overflow=hidden;whiteSpace=wrap;html=1;" vertex="1" parent="HmVvPEnZhzMZrV7oaeaQ-66">
          <mxGeometry x="30" width="150" height="30" as="geometry">
            <mxRectangle width="150" height="30" as="alternateBounds" />
          </mxGeometry>
        </mxCell>
        <mxCell id="HmVvPEnZhzMZrV7oaeaQ-69" value="" style="shape=tableRow;horizontal=0;startSize=0;swimlaneHead=0;swimlaneBody=0;fillColor=none;collapsible=0;dropTarget=0;points=[[0,0.5],[1,0.5]];portConstraint=eastwest;top=0;left=0;right=0;bottom=0;" vertex="1" parent="HmVvPEnZhzMZrV7oaeaQ-56">
          <mxGeometry y="120" width="180" height="30" as="geometry" />
        </mxCell>
        <mxCell id="HmVvPEnZhzMZrV7oaeaQ-70" value="" style="shape=partialRectangle;connectable=0;fillColor=none;top=0;left=0;bottom=0;right=0;editable=1;overflow=hidden;whiteSpace=wrap;html=1;" vertex="1" parent="HmVvPEnZhzMZrV7oaeaQ-69">
          <mxGeometry width="30" height="30" as="geometry">
            <mxRectangle width="30" height="30" as="alternateBounds" />
          </mxGeometry>
        </mxCell>
        <mxCell id="HmVvPEnZhzMZrV7oaeaQ-71" value="제품구분" style="shape=partialRectangle;connectable=0;fillColor=none;top=0;left=0;bottom=0;right=0;align=left;spacingLeft=6;overflow=hidden;whiteSpace=wrap;html=1;" vertex="1" parent="HmVvPEnZhzMZrV7oaeaQ-69">
          <mxGeometry x="30" width="150" height="30" as="geometry">
            <mxRectangle width="150" height="30" as="alternateBounds" />
          </mxGeometry>
        </mxCell>
        <mxCell id="HmVvPEnZhzMZrV7oaeaQ-72" value="지역" style="shape=table;startSize=30;container=1;collapsible=1;childLayout=tableLayout;fixedRows=1;rowLines=0;fontStyle=1;align=center;resizeLast=1;html=1;" vertex="1" parent="1">
          <mxGeometry x="50" y="135" width="180" height="90" as="geometry" />
        </mxCell>
        <mxCell id="HmVvPEnZhzMZrV7oaeaQ-73" value="" style="shape=tableRow;horizontal=0;startSize=0;swimlaneHead=0;swimlaneBody=0;fillColor=none;collapsible=0;dropTarget=0;points=[[0,0.5],[1,0.5]];portConstraint=eastwest;top=0;left=0;right=0;bottom=1;" vertex="1" parent="HmVvPEnZhzMZrV7oaeaQ-72">
          <mxGeometry y="30" width="180" height="30" as="geometry" />
        </mxCell>
        <mxCell id="HmVvPEnZhzMZrV7oaeaQ-74" value="PK" style="shape=partialRectangle;connectable=0;fillColor=none;top=0;left=0;bottom=0;right=0;fontStyle=1;overflow=hidden;whiteSpace=wrap;html=1;" vertex="1" parent="HmVvPEnZhzMZrV7oaeaQ-73">
          <mxGeometry width="35" height="30" as="geometry">
            <mxRectangle width="35" height="30" as="alternateBounds" />
          </mxGeometry>
        </mxCell>
        <mxCell id="HmVvPEnZhzMZrV7oaeaQ-75" value="지역코드" style="shape=partialRectangle;connectable=0;fillColor=none;top=0;left=0;bottom=0;right=0;align=left;spacingLeft=6;fontStyle=5;overflow=hidden;whiteSpace=wrap;html=1;" vertex="1" parent="HmVvPEnZhzMZrV7oaeaQ-73">
          <mxGeometry x="35" width="145" height="30" as="geometry">
            <mxRectangle width="145" height="30" as="alternateBounds" />
          </mxGeometry>
        </mxCell>
        <mxCell id="HmVvPEnZhzMZrV7oaeaQ-76" value="" style="shape=tableRow;horizontal=0;startSize=0;swimlaneHead=0;swimlaneBody=0;fillColor=none;collapsible=0;dropTarget=0;points=[[0,0.5],[1,0.5]];portConstraint=eastwest;top=0;left=0;right=0;bottom=0;" vertex="1" parent="HmVvPEnZhzMZrV7oaeaQ-72">
          <mxGeometry y="60" width="180" height="30" as="geometry" />
        </mxCell>
        <mxCell id="HmVvPEnZhzMZrV7oaeaQ-77" value="" style="shape=partialRectangle;connectable=0;fillColor=none;top=0;left=0;bottom=0;right=0;editable=1;overflow=hidden;whiteSpace=wrap;html=1;" vertex="1" parent="HmVvPEnZhzMZrV7oaeaQ-76">
          <mxGeometry width="35" height="30" as="geometry">
            <mxRectangle width="35" height="30" as="alternateBounds" />
          </mxGeometry>
        </mxCell>
        <mxCell id="HmVvPEnZhzMZrV7oaeaQ-78" value="지역명" style="shape=partialRectangle;connectable=0;fillColor=none;top=0;left=0;bottom=0;right=0;align=left;spacingLeft=6;overflow=hidden;whiteSpace=wrap;html=1;" vertex="1" parent="HmVvPEnZhzMZrV7oaeaQ-76">
          <mxGeometry x="35" width="145" height="30" as="geometry">
            <mxRectangle width="145" height="30" as="alternateBounds" />
          </mxGeometry>
        </mxCell>
        <mxCell id="HmVvPEnZhzMZrV7oaeaQ-85" value="구매" style="shape=table;startSize=30;container=1;collapsible=1;childLayout=tableLayout;fixedRows=1;rowLines=0;fontStyle=1;align=center;resizeLast=1;html=1;" vertex="1" parent="1">
          <mxGeometry x="-570" y="190" width="180" height="180" as="geometry" />
        </mxCell>
        <mxCell id="HmVvPEnZhzMZrV7oaeaQ-86" value="" style="shape=tableRow;horizontal=0;startSize=0;swimlaneHead=0;swimlaneBody=0;fillColor=none;collapsible=0;dropTarget=0;points=[[0,0.5],[1,0.5]];portConstraint=eastwest;top=0;left=0;right=0;bottom=1;" vertex="1" parent="HmVvPEnZhzMZrV7oaeaQ-85">
          <mxGeometry y="30" width="180" height="30" as="geometry" />
        </mxCell>
        <mxCell id="HmVvPEnZhzMZrV7oaeaQ-87" value="PK" style="shape=partialRectangle;connectable=0;fillColor=none;top=0;left=0;bottom=0;right=0;fontStyle=1;overflow=hidden;whiteSpace=wrap;html=1;" vertex="1" parent="HmVvPEnZhzMZrV7oaeaQ-86">
          <mxGeometry width="30" height="30" as="geometry">
            <mxRectangle width="30" height="30" as="alternateBounds" />
          </mxGeometry>
        </mxCell>
        <mxCell id="HmVvPEnZhzMZrV7oaeaQ-88" value="구매번호" style="shape=partialRectangle;connectable=0;fillColor=none;top=0;left=0;bottom=0;right=0;align=left;spacingLeft=6;fontStyle=5;overflow=hidden;whiteSpace=wrap;html=1;" vertex="1" parent="HmVvPEnZhzMZrV7oaeaQ-86">
          <mxGeometry x="30" width="150" height="30" as="geometry">
            <mxRectangle width="150" height="30" as="alternateBounds" />
          </mxGeometry>
        </mxCell>
        <mxCell id="HmVvPEnZhzMZrV7oaeaQ-89" value="" style="shape=tableRow;horizontal=0;startSize=0;swimlaneHead=0;swimlaneBody=0;fillColor=none;collapsible=0;dropTarget=0;points=[[0,0.5],[1,0.5]];portConstraint=eastwest;top=0;left=0;right=0;bottom=0;" vertex="1" parent="HmVvPEnZhzMZrV7oaeaQ-85">
          <mxGeometry y="60" width="180" height="30" as="geometry" />
        </mxCell>
        <mxCell id="HmVvPEnZhzMZrV7oaeaQ-90" value="" style="shape=partialRectangle;connectable=0;fillColor=none;top=0;left=0;bottom=0;right=0;editable=1;overflow=hidden;whiteSpace=wrap;html=1;" vertex="1" parent="HmVvPEnZhzMZrV7oaeaQ-89">
          <mxGeometry width="30" height="30" as="geometry">
            <mxRectangle width="30" height="30" as="alternateBounds" />
          </mxGeometry>
        </mxCell>
        <mxCell id="HmVvPEnZhzMZrV7oaeaQ-91" value="고객코드(FK)" style="shape=partialRectangle;connectable=0;fillColor=none;top=0;left=0;bottom=0;right=0;align=left;spacingLeft=6;overflow=hidden;whiteSpace=wrap;html=1;" vertex="1" parent="HmVvPEnZhzMZrV7oaeaQ-89">
          <mxGeometry x="30" width="150" height="30" as="geometry">
            <mxRectangle width="150" height="30" as="alternateBounds" />
          </mxGeometry>
        </mxCell>
        <mxCell id="HmVvPEnZhzMZrV7oaeaQ-92" value="" style="shape=tableRow;horizontal=0;startSize=0;swimlaneHead=0;swimlaneBody=0;fillColor=none;collapsible=0;dropTarget=0;points=[[0,0.5],[1,0.5]];portConstraint=eastwest;top=0;left=0;right=0;bottom=0;" vertex="1" parent="HmVvPEnZhzMZrV7oaeaQ-85">
          <mxGeometry y="90" width="180" height="30" as="geometry" />
        </mxCell>
        <mxCell id="HmVvPEnZhzMZrV7oaeaQ-93" value="" style="shape=partialRectangle;connectable=0;fillColor=none;top=0;left=0;bottom=0;right=0;editable=1;overflow=hidden;whiteSpace=wrap;html=1;" vertex="1" parent="HmVvPEnZhzMZrV7oaeaQ-92">
          <mxGeometry width="30" height="30" as="geometry">
            <mxRectangle width="30" height="30" as="alternateBounds" />
          </mxGeometry>
        </mxCell>
        <mxCell id="HmVvPEnZhzMZrV7oaeaQ-94" value="제품코드(FK)" style="shape=partialRectangle;connectable=0;fillColor=none;top=0;left=0;bottom=0;right=0;align=left;spacingLeft=6;overflow=hidden;whiteSpace=wrap;html=1;" vertex="1" parent="HmVvPEnZhzMZrV7oaeaQ-92">
          <mxGeometry x="30" width="150" height="30" as="geometry">
            <mxRectangle width="150" height="30" as="alternateBounds" />
          </mxGeometry>
        </mxCell>
        <mxCell id="HmVvPEnZhzMZrV7oaeaQ-95" value="" style="shape=tableRow;horizontal=0;startSize=0;swimlaneHead=0;swimlaneBody=0;fillColor=none;collapsible=0;dropTarget=0;points=[[0,0.5],[1,0.5]];portConstraint=eastwest;top=0;left=0;right=0;bottom=0;" vertex="1" parent="HmVvPEnZhzMZrV7oaeaQ-85">
          <mxGeometry y="120" width="180" height="30" as="geometry" />
        </mxCell>
        <mxCell id="HmVvPEnZhzMZrV7oaeaQ-96" value="" style="shape=partialRectangle;connectable=0;fillColor=none;top=0;left=0;bottom=0;right=0;editable=1;overflow=hidden;whiteSpace=wrap;html=1;" vertex="1" parent="HmVvPEnZhzMZrV7oaeaQ-95">
          <mxGeometry width="30" height="30" as="geometry">
            <mxRectangle width="30" height="30" as="alternateBounds" />
          </mxGeometry>
        </mxCell>
        <mxCell id="HmVvPEnZhzMZrV7oaeaQ-97" value="구매일자" style="shape=partialRectangle;connectable=0;fillColor=none;top=0;left=0;bottom=0;right=0;align=left;spacingLeft=6;overflow=hidden;whiteSpace=wrap;html=1;" vertex="1" parent="HmVvPEnZhzMZrV7oaeaQ-95">
          <mxGeometry x="30" width="150" height="30" as="geometry">
            <mxRectangle width="150" height="30" as="alternateBounds" />
          </mxGeometry>
        </mxCell>
        <mxCell id="HmVvPEnZhzMZrV7oaeaQ-98" value="" style="shape=tableRow;horizontal=0;startSize=0;swimlaneHead=0;swimlaneBody=0;fillColor=none;collapsible=0;dropTarget=0;points=[[0,0.5],[1,0.5]];portConstraint=eastwest;top=0;left=0;right=0;bottom=0;" vertex="1" parent="HmVvPEnZhzMZrV7oaeaQ-85">
          <mxGeometry y="150" width="180" height="30" as="geometry" />
        </mxCell>
        <mxCell id="HmVvPEnZhzMZrV7oaeaQ-99" value="" style="shape=partialRectangle;connectable=0;fillColor=none;top=0;left=0;bottom=0;right=0;editable=1;overflow=hidden;whiteSpace=wrap;html=1;" vertex="1" parent="HmVvPEnZhzMZrV7oaeaQ-98">
          <mxGeometry width="30" height="30" as="geometry">
            <mxRectangle width="30" height="30" as="alternateBounds" />
          </mxGeometry>
        </mxCell>
        <mxCell id="HmVvPEnZhzMZrV7oaeaQ-100" value="수량" style="shape=partialRectangle;connectable=0;fillColor=none;top=0;left=0;bottom=0;right=0;align=left;spacingLeft=6;overflow=hidden;whiteSpace=wrap;html=1;" vertex="1" parent="HmVvPEnZhzMZrV7oaeaQ-98">
          <mxGeometry x="30" width="150" height="30" as="geometry">
            <mxRectangle width="150" height="30" as="alternateBounds" />
          </mxGeometry>
        </mxCell>
        <mxCell id="HmVvPEnZhzMZrV7oaeaQ-109" value="" style="edgeStyle=entityRelationEdgeStyle;fontSize=12;html=1;endArrow=ERoneToMany;startArrow=ERmandOne;rounded=0;entryX=0;entryY=0.5;entryDx=0;entryDy=0;" edge="1" parent="1" target="HmVvPEnZhzMZrV7oaeaQ-47">
          <mxGeometry width="100" height="100" relative="1" as="geometry">
            <mxPoint x="-390" y="343" as="sourcePoint" />
            <mxPoint x="-270" y="280" as="targetPoint" />
          </mxGeometry>
        </mxCell>
        <mxCell id="HmVvPEnZhzMZrV7oaeaQ-110" value="" style="edgeStyle=entityRelationEdgeStyle;fontSize=12;html=1;endArrow=ERoneToMany;startArrow=ERmandOne;rounded=0;exitX=1;exitY=0.5;exitDx=0;exitDy=0;" edge="1" parent="1" source="HmVvPEnZhzMZrV7oaeaQ-57" target="HmVvPEnZhzMZrV7oaeaQ-12">
          <mxGeometry width="100" height="100" relative="1" as="geometry">
            <mxPoint x="-360" y="235" as="sourcePoint" />
            <mxPoint x="-260" y="135" as="targetPoint" />
          </mxGeometry>
        </mxCell>
        <mxCell id="HmVvPEnZhzMZrV7oaeaQ-111" value="" style="edgeStyle=entityRelationEdgeStyle;fontSize=12;html=1;endArrow=ERoneToMany;startArrow=ERmandOne;rounded=0;entryX=1;entryY=0.5;entryDx=0;entryDy=0;exitX=0.001;exitY=0.216;exitDx=0;exitDy=0;exitPerimeter=0;" edge="1" parent="1" source="HmVvPEnZhzMZrV7oaeaQ-76" target="HmVvPEnZhzMZrV7oaeaQ-44">
          <mxGeometry width="100" height="100" relative="1" as="geometry">
            <mxPoint x="120" y="570" as="sourcePoint" />
            <mxPoint x="-30" y="190" as="targetPoint" />
          </mxGeometry>
        </mxCell>
      </root>
    </mxGraphModel>
  </diagram>
</mxfile>
